# xmcd
#
# Track frame offsets:
#	150
#	15860
#	33442
#	50480
#	70212
#	90245
#	109475
#	126287
#	139305
#	157952
#	169147
#	183622
#	196497
#	211910
#	225572
#	238052
#	253637
#
# Disc length: 3532 seconds
#
# Revision: 9
# Processed by: cddbd v1.5.2PL0 Copyright (c) Steve Scherf et al.
# Submitted via: EasyCDDAExtractor 15.3.0.1
#
DISCID=e90dca11
DTITLE=Cher - Bittersweet - The Love Songs Collection
DYEAR=1999
DGENRE=Pop
TTITLE0=By Myself
TTITLE1=I Got It Bad And That Ain't Good
TTITLE2=Am I Blue
TTITLE3=How Long Has This Been Going On
TTITLE4=The Man I Love
TTITLE5=Jolson Medley (Sonny Boy, My Mammy, Rock-A-Bye Your Baby With A Dixie 
TTITLE5=Melody)
TTITLE6=More Than You Know
TTITLE7=Why Was I Born
TTITLE8=The Man That Got Away
TTITLE9=What'll I Do
TTITLE10=The Long And Winding Road
TTITLE11=Greatest Song I Ever Heard
TTITLE12=David's Song
TTITLE13=It Might As Well Stay Monday
TTITLE14=Don't Try To Close A Rose
TTITLE15=He'll Never Know
TTITLE16=The Way Of Love
EXTD=
EXTT0=
EXTT1=
EXTT2=
EXTT3=
EXTT4=
EXTT5=
EXTT6=
EXTT7=
EXTT8=
EXTT9=
EXTT10=
EXTT11=
EXTT12=
EXTT13=
EXTT14=
EXTT15=
EXTT16=
PLAYORDER=
